<svg width="1280" height="720" viewBox="0 0 1280 720" fill="none" xmlns="http://www.w3.org/2000/svg">
  <defs>
    <linearGradient id="bg" x1="140" y1="80" x2="1140" y2="640" gradientUnits="userSpaceOnUse">
      <stop stop-color="#F8F1E7"/>
      <stop offset="1" stop-color="#EBDDC7"/>
    </linearGradient>
    <linearGradient id="accent" x1="0" y1="0" x2="1" y2="1">
      <stop stop-color="#FF5A36"/>
      <stop offset="1" stop-color="#F5A623"/>
    </linearGradient>
    <filter id="shadow" x="180" y="140" width="920" height="460" filterUnits="userSpaceOnUse" color-interpolation-filters="sRGB">
      <feDropShadow dx="0" dy="24" stdDeviation="24" flood-color="#5E351C" flood-opacity="0.14"/>
    </filter>
  </defs>

  <rect width="1280" height="720" fill="url(#bg)"/>
  <circle cx="182" cy="122" r="110" fill="#FF5A36" fill-opacity="0.12"/>
  <circle cx="1110" cy="610" r="120" fill="#F7C94A" fill-opacity="0.18"/>

  <g filter="url(#shadow)">
    <rect x="220" y="160" width="840" height="400" rx="28" fill="#FFF8F1" fill-opacity="0.88"/>
    <rect x="220.5" y="160.5" width="839" height="399" rx="27.5" stroke="#171717" stroke-opacity="0.08"/>
  </g>

  <rect x="250" y="190" width="154" height="42" rx="21" fill="#FFF3ED"/>
  <text x="278" y="217" fill="#C74B26" font-size="16" font-family="Arial, Helvetica, sans-serif" font-weight="700">Language</text>
  <rect x="414" y="198" width="62" height="26" rx="13" fill="url(#accent)"/>
  <text x="432" y="215" fill="white" font-size="13" font-family="Arial, Helvetica, sans-serif" font-weight="700">繁中</text>
  <rect x="484" y="198" width="62" height="26" rx="13" fill="#FFFFFF"/>
  <text x="501" y="215" fill="#595756" font-size="13" font-family="Arial, Helvetica, sans-serif" font-weight="700">简中</text>
  <rect x="554" y="198" width="74" height="26" rx="13" fill="#FFFFFF"/>
  <text x="573" y="215" fill="#595756" font-size="13" font-family="Arial, Helvetica, sans-serif" font-weight="700">English</text>
  <rect x="636" y="198" width="72" height="26" rx="13" fill="#FFFFFF"/>
  <text x="657" y="215" fill="#595756" font-size="13" font-family="Arial, Helvetica, sans-serif" font-weight="700">日本語</text>

  <text x="250" y="278" fill="#C74B26" font-size="15" font-family="Arial, Helvetica, sans-serif" letter-spacing="3">LOCAL UTILITY</text>
  <text x="250" y="338" fill="#171717" font-size="46" font-family="Arial, Helvetica, sans-serif" font-weight="700">Paste a YouTube link,</text>
  <text x="250" y="390" fill="#171717" font-size="46" font-family="Arial, Helvetica, sans-serif" font-weight="700">download MP4 instantly</text>
  <text x="250" y="430" fill="#5C5A57" font-size="18" font-family="Arial, Helvetica, sans-serif">
    Quality selector, progress tracking, multilingual UI, Docker deployment and persistent storage.
  </text>

  <rect x="250" y="470" width="520" height="56" rx="18" fill="#FFFFFF"/>
  <rect x="250.5" y="470.5" width="519" height="55" rx="17.5" stroke="#171717" stroke-opacity="0.08"/>
  <text x="274" y="505" fill="#8A8784" font-size="18" font-family="Arial, Helvetica, sans-serif">https://www.youtube.com/watch?v=...</text>

  <rect x="786" y="470" width="144" height="56" rx="18" fill="url(#accent)"/>
  <text x="822" y="505" fill="white" font-size="18" font-family="Arial, Helvetica, sans-serif" font-weight="700">Download</text>

  <text x="250" y="560" fill="#5C5A57" font-size="14" font-family="Arial, Helvetica, sans-serif">Download Progress</text>
  <rect x="250" y="575" width="680" height="14" rx="7" fill="#E7DFD4"/>
  <rect x="250" y="575" width="496" height="14" rx="7" fill="url(#accent)"/>
  <text x="250" y="620" fill="#5C5A57" font-size="18" font-family="Arial, Helvetica, sans-serif">Merging audio and video into MP4</text>
  <text x="890" y="620" fill="#171717" font-size="18" font-family="Arial, Helvetica, sans-serif" font-weight="700">73.0%</text>
</svg>
